# xmcd CD database file
#
# Track frame offsets:
#	150
#	22375
#	40281
#	67590
#	92600
#	113591
#	128377
#	150349
#	163902
#	178912
#	196800
#	217956
#	236757
#	254983
#	272844
#	295014
#
# Disc length: 4140 seconds
#
# Revision: 0
# Processed by: cddbd v1.5.2PL0 Copyright (c) Steve Scherf et al.
# Submitted via: CDex 1.70beta2
#
DISCID=e0102a10
DTITLE=Wes Montgomery - Jingles
DYEAR=2010
DGENRE=Jazz
TTITLE0='Round Midnight
TTITLE1=Satin Doll
TTITLE2=Missile Blues
TTITLE3=Jingles
TTITLE4=Whisper Not
TTITLE5=The End Of A Love Affair
TTITLE6=Too Late Now
TTITLE7=Ecaroh
TTITLE8=Yesterdays
TTITLE9=All The Things You Are
TTITLE10=Billie's Bounce
TTITLE11=Wes' Tune
TTITLE12=Montgomeryland Funk
TTITLE13=Monk's Shop
TTITLE14=Stranger in Paradise
TTITLE15=Baubles, Bangles And Beads
EXTD=YEAR: 2010
EXTT0=
EXTT1=
EXTT2=
EXTT3=
EXTT4=
EXTT5=
EXTT6=
EXTT7=
EXTT8=
EXTT9=
EXTT10=
EXTT11=
EXTT12=
EXTT13=
EXTT14=
EXTT15=
PLAYORDER=
